<?xml version="1.0" encoding="UTF-8" standalone="no"?>
<!-- Created with Inkscape (http://www.inkscape.org/) -->

<svg
   width="102.84mm"
   height="102.84mm"
   viewBox="0 0 102.84 102.84"
   version="1.1"
   id="svg5"
   inkscape:version="1.3 (0e150ed6c4, 2023-07-21)"
   sodipodi:docname="logoPnETSuccessionCalibrationTool.svg"
   xml:space="preserve"
   xmlns:inkscape="http://www.inkscape.org/namespaces/inkscape"
   xmlns:sodipodi="http://sodipodi.sourceforge.net/DTD/sodipodi-0.dtd"
   xmlns="http://www.w3.org/2000/svg"
   xmlns:svg="http://www.w3.org/2000/svg"><sodipodi:namedview
     id="namedview7"
     pagecolor="#ffffff"
     bordercolor="#666666"
     borderopacity="1.0"
     inkscape:pageshadow="2"
     inkscape:pageopacity="0.0"
     inkscape:pagecheckerboard="0"
     inkscape:document-units="mm"
     showgrid="false"
     inkscape:zoom="1.1326109"
     inkscape:cx="41.055582"
     inkscape:cy="-7.5047839"
     inkscape:window-width="3440"
     inkscape:window-height="1377"
     inkscape:window-x="-8"
     inkscape:window-y="-8"
     inkscape:window-maximized="1"
     inkscape:current-layer="layer1"
     fit-margin-top="0"
     fit-margin-left="0"
     fit-margin-right="0"
     fit-margin-bottom="0"
     inkscape:showpageshadow="2"
     inkscape:deskcolor="#d1d1d1" /><defs
     id="defs2"><clipPath
       clipPathUnits="userSpaceOnUse"
       id="clipPath32714-8"><path
         sodipodi:type="star"
         style="fill:#f0f8fa;fill-opacity:1;stroke-width:5.53701;stroke-linejoin:bevel"
         id="path32716-7"
         inkscape:flatsided="true"
         sodipodi:sides="4"
         sodipodi:cx="328.95694"
         sodipodi:cy="334.28955"
         sodipodi:r1="194.34247"
         sodipodi:r2="137.42088"
         sodipodi:arg1="0"
         sodipodi:arg2="0.78539816"
         inkscape:rounded="0"
         inkscape:randomized="0"
         transform="matrix(0.26458333,0,0,0.26458333,-35.616745,-37.027665)"
         inkscape:transform-center-x="1.0965231e-06"
         inkscape:transform-center-y="-1.1142985e-06"
         d="M 523.29941,334.28955 328.95694,528.63202 134.61447,334.28955 328.95694,139.94708 Z" /></clipPath></defs><g
     inkscape:label="Calque 1"
     inkscape:groupmode="layer"
     id="layer1"
     transform="translate(18.0584,-123.15707)"><path
       sodipodi:type="star"
       style="fill:#abdae1;fill-opacity:1;stroke-width:5.53701;stroke-linecap:butt;stroke-linejoin:bevel"
       id="path846-0"
       inkscape:flatsided="true"
       sodipodi:sides="4"
       sodipodi:cx="328.95694"
       sodipodi:cy="334.28955"
       sodipodi:r1="194.34247"
       sodipodi:r2="137.42088"
       sodipodi:arg1="0"
       sodipodi:arg2="0.78539816"
       inkscape:rounded="0"
       inkscape:randomized="0"
       transform="matrix(0.25327664,0,0,0.25327664,-52.153101,87.711746)"
       inkscape:transform-center-x="1.0965231e-06"
       inkscape:transform-center-y="-1.1142985e-06"
       d="M 523.29941,334.28955 328.95694,528.63202 134.61447,334.28955 328.95694,139.94708 Z" /><path
       sodipodi:type="star"
       style="fill:#eceff4;fill-opacity:1;stroke-width:5.53701;stroke-linecap:butt;stroke-linejoin:bevel"
       id="path846-7-69"
       inkscape:flatsided="true"
       sodipodi:sides="4"
       sodipodi:cx="328.95694"
       sodipodi:cy="334.28955"
       sodipodi:r1="194.34247"
       sodipodi:r2="137.42088"
       sodipodi:arg1="0"
       sodipodi:arg2="0.78539816"
       inkscape:rounded="0"
       inkscape:randomized="0"
       transform="matrix(0.25327664,0,0,0.25327664,-52.153101,87.711746)"
       inkscape:transform-center-x="1.0965231e-06"
       inkscape:transform-center-y="-1.1142985e-06"
       d="M 523.29941,334.28955 328.95694,528.63202 134.61447,334.28955 328.95694,139.94708 Z" /><path
       sodipodi:type="star"
       style="fill:#fffafa;fill-opacity:1;stroke-width:5.53701;stroke-linecap:butt;stroke-linejoin:bevel"
       id="path846-7-6-4"
       inkscape:flatsided="true"
       sodipodi:sides="4"
       sodipodi:cx="328.95694"
       sodipodi:cy="334.28955"
       sodipodi:r1="194.34247"
       sodipodi:r2="137.42088"
       sodipodi:arg1="0"
       sodipodi:arg2="0.78539816"
       inkscape:rounded="0"
       inkscape:randomized="0"
       transform="matrix(0.13794613,-0.11533051,-0.11533051,0.13794613,51.14826,191.0131)"
       inkscape:transform-center-x="-1.2564354e-06"
       inkscape:transform-center-y="-2.8760282e-06"
       d="M 523.29941,334.28955 328.95694,528.63202 134.61447,334.28955 328.95694,139.94708 Z" /><g
       aria-label="LANDIS-II"
       transform="rotate(-45)"
       id="text1921-9"
       style="font-size:6.75405px;fill:#bc4749;stroke-width:0.253276;stroke-linejoin:round"><path
         d="m -116.28697,184.20425 v -4.72783 h 1.09416 v 3.8363 h 2.37067 v 0.89153 z"
         style="-inkscape-font-specification:Montserrat"
         id="path339" /><path
         d="m -112.80213,184.20425 2.10727,-4.72783 h 1.08064 l 2.11402,4.72783 h -1.14819 l -1.72903,-4.174 h 0.43226 l -1.7358,4.174 z m 1.05363,-1.0131 0.29043,-0.83075 h 2.43146 l 0.29717,0.83075 z"
         style="-inkscape-font-specification:Montserrat"
         id="path341" /><path
         d="m -107.00716,184.20425 v -4.72783 h 0.90504 l 2.78942,3.40404 h -0.43901 v -3.40404 h 1.08065 v 4.72783 h -0.89829 l -2.79618,-3.40404 h 0.43902 v 3.40404 z"
         style="-inkscape-font-specification:Montserrat"
         id="path343" /><path
         d="m -101.5499,184.20425 v -4.72783 h 2.147791 q 0.769961,0 1.357564,0.29718 0.587602,0.29042 0.918551,0.81724 0.330948,0.52681 0.330948,1.2495 0,0.71593 -0.330948,1.2495 -0.330949,0.52681 -0.918551,0.82399 -0.587603,0.29042 -1.357564,0.29042 z m 1.09416,-0.89828 h 0.999598 q 0.472784,0 0.81724,-0.17561 0.351211,-0.18236 0.540324,-0.51331 0.195868,-0.33095 0.195868,-0.77671 0,-0.45252 -0.195868,-0.77672 -0.189113,-0.33095 -0.540324,-0.50655 -0.344456,-0.18236 -0.81724,-0.18236 h -0.999598 z"
         style="-inkscape-font-specification:Montserrat"
         id="path345" /><path
         d="m -95.971064,184.20425 v -4.72783 h 1.094156 v 4.72783 z"
         style="-inkscape-font-specification:Montserrat"
         id="path347" /><path
         d="m -92.20231,184.2853 q -0.567341,0 -1.087402,-0.14859 -0.520062,-0.15534 -0.837503,-0.39849 l 0.371473,-0.82399 q 0.303932,0.21613 0.715929,0.35797 0.418751,0.13508 0.844257,0.13508 0.324194,0 0.520061,-0.0608 0.202622,-0.0675 0.297179,-0.18236 0.09456,-0.11482 0.09456,-0.26341 0,-0.18911 -0.148589,-0.29718 -0.148589,-0.11481 -0.391735,-0.18235 -0.243145,-0.0743 -0.540324,-0.13509 -0.290424,-0.0675 -0.587602,-0.16209 -0.290424,-0.0946 -0.53357,-0.24315 -0.243146,-0.14859 -0.398489,-0.39173 -0.148589,-0.24315 -0.148589,-0.62138 0,-0.40524 0.21613,-0.73619 0.222883,-0.3377 0.661897,-0.53357 0.445767,-0.20262 1.114418,-0.20262 0.445767,0 0.878026,0.10807 0.432259,0.10131 0.763208,0.31068 l -0.337703,0.83075 q -0.330948,-0.18911 -0.661897,-0.27692 -0.330948,-0.0945 -0.648388,-0.0945 -0.317441,0 -0.520062,0.0743 -0.202622,0.0743 -0.290424,0.19587 -0.0878,0.11482 -0.0878,0.27016 0,0.18236 0.148589,0.29718 0.148589,0.10806 0.391735,0.1756 0.243146,0.0676 0.53357,0.13509 0.297178,0.0675 0.587602,0.15534 0.297178,0.0878 0.540324,0.23639 0.243146,0.14859 0.391735,0.39174 0.155343,0.24314 0.155343,0.61461 0,0.39849 -0.222883,0.72944 -0.222884,0.33095 -0.668651,0.53357 -0.439013,0.20262 -1.114418,0.20262 z"
         style="-inkscape-font-specification:Montserrat"
         id="path349" /><path
         d="m -89.564063,182.72512 v -0.84426 h 1.911396 v 0.84426 z"
         style="-inkscape-font-specification:Montserrat"
         id="path351" /><path
         d="m -86.747626,184.20425 v -4.72783 h 1.094156 v 4.72783 z"
         style="-inkscape-font-specification:Montserrat"
         id="path353" /><path
         d="m -84.532304,184.20425 v -4.72783 h 1.094156 v 4.72783 z"
         style="-inkscape-font-specification:Montserrat"
         id="path355" /></g><path
       d="m -29.520882,117.59111 v -0.95718 h -0.637499 v 0.95718 z m -1.274997,1.59468 v -2.87155 h 1.594681 v 0.31969 h 0.319684 v 0.95718 h -0.319684 v 0.31968 h -0.957183 v 1.275 z m 2.232179,0 v -2.23218 h 1.594681 v 0.31782 h 0.319684 v 1.91436 h -0.639368 v -1.91436 h -0.637498 v 1.91436 z m 2.23218,0 v -2.87155 h 1.914365 v 0.31969 h -1.276867 v 0.95718 h 0.957183 v 0.31968 h -0.957183 v 0.95719 h 1.276867 v 0.31781 z m 2.869678,0 v -2.55186 h -0.637498 v -0.31969 h 1.914365 v 0.31969 h -0.639368 v 2.55186 z m 1.594681,-1.275 v -0.31968 h 1.274997 v 0.31968 z m -14.510102,4.72085 v -0.31781 h -0.317815 v -0.63937 h 0.637499 v 0.63937 h 0.637499 v -0.95719 h -0.957183 v -0.31968 h -0.317815 v -0.95718 h 0.317815 v -0.31969 h 1.276867 v 0.31969 h 0.319684 v 0.6375 h -0.639368 v -0.6375 h -0.637499 v 0.95718 h 0.957183 v 0.31968 h 0.319684 v 0.95719 h -0.319684 v 0.31781 z m 2.23218,0 v -0.31781 h -0.317815 v -1.91437 h 0.637499 v 1.91437 h 0.637498 v -1.91437 h 0.639368 v 2.23218 z m 2.232179,0 v -0.31781 h -0.317814 v -1.59655 h 0.317814 v -0.31782 h 1.276867 v 0.31782 h 0.319684 v 0.63936 h -0.639368 v -0.63936 h -0.637499 v 1.59655 h 0.637499 v -0.63937 h 0.639368 v 0.63937 h -0.319684 v 0.31781 z m 2.23218,0 v -0.31781 h -0.317815 v -1.59655 h 0.317815 v -0.31782 h 1.276866 v 0.31782 h 0.319684 v 0.63936 h -0.639368 v -0.63936 h -0.637498 v 1.59655 h 0.637498 v -0.63937 h 0.639368 v 0.63937 h -0.319684 v 0.31781 z m 3.189362,-1.275 v -0.63936 h -0.637498 v 0.63936 z m -0.957182,1.275 v -0.31781 h -0.317815 v -1.59655 h 0.317815 v -0.31782 h 1.276866 v 0.31782 h 0.319684 v 0.95718 h -1.276866 v 0.63937 h 0.637498 v -0.31969 h 0.639368 v 0.31969 h -0.319684 v 0.31781 z m 2.232179,0 v -0.31781 h -0.317814 v -0.31969 h 0.637498 v 0.31969 h 0.637499 v -0.63937 h -0.957183 v -0.31782 h -0.317814 v -0.63936 h 0.317814 v -0.31782 h 1.276867 v 0.31782 h 0.319684 v 0.31968 h -0.639368 v -0.31968 h -0.637499 v 0.63936 h 0.957183 v 0.31782 h 0.319684 v 0.63937 h -0.319684 v 0.31781 z m 2.23218,0 v -0.31781 H -23.302 v -0.31969 h 0.637499 v 0.31969 h 0.637498 v -0.63937 h -0.957182 v -0.31782 H -23.302 v -0.63936 h 0.317815 v -0.31782 h 1.276866 v 0.31782 h 0.319684 v 0.31968 h -0.639368 v -0.31968 h -0.637498 v 0.63936 h 0.957182 v 0.31782 h 0.319684 v 0.63937 h -0.319684 v 0.31781 z m 1.914365,0 v -0.31781 h 0.637499 v -1.59655 h -0.637499 v -0.31782 h 1.274997 v 1.91437 h 0.639368 v 0.31781 z m 0.637499,-2.55186 v -0.6375 h 0.637498 v 0.6375 z m 2.869678,2.23405 v -1.59655 h -0.637499 v 1.59655 z m -0.957183,0.31781 v -0.31781 h -0.317814 v -1.59655 h 0.317814 v -0.31782 h 1.276867 v 0.31782 h 0.319684 v 1.59655 h -0.319684 v 0.31781 z m 1.914365,0 v -2.23218 h 1.594681 v 0.31782 h 0.319684 v 1.91436 h -0.639368 v -1.91436 h -0.637498 v 1.91436 z m -25.830842,3.44586 v -0.31782 h -0.317815 v -2.23405 h 0.317815 v -0.31968 h 1.276866 v 0.31968 h 0.319684 v 0.6375 h -0.639368 v -0.6375 h -0.637498 v 2.23405 h 0.637498 v -0.63937 h 0.639368 v 0.63937 h -0.319684 v 0.31782 z m 3.189362,-0.31782 v -0.63937 h -0.637499 v 0.63937 z m -0.957183,0.31782 v -0.31782 h -0.317814 v -0.63937 h 0.317814 v -0.31781 h 0.957183 v -0.63937 h -0.637499 v 0.31968 h -0.637498 v -0.31968 h 0.317814 v -0.31781 h 1.276867 v 0.31781 h 0.319684 v 1.91437 z m 1.914366,0 v -0.31782 h 0.637498 v -2.23405 h -0.637498 v -0.31968 h 1.274997 v 2.55373 h 0.639368 v 0.31782 z m 2.232179,0 v -0.31782 h 0.637499 v -1.59655 h -0.637499 v -0.31781 h 1.274997 v 1.91436 h 0.639368 v 0.31782 z m 0.637499,-2.55187 v -0.6375 h 0.637498 v 0.6375 z m 2.869678,2.23405 v -1.59655 h -0.637499 v 1.59655 z m -1.274997,0.31782 v -2.87155 h 0.637498 v 0.63937 h 0.957183 v 0.31781 h 0.319684 v 1.59655 h -0.319684 v 0.31782 z m 2.23218,0 v -2.23218 h 1.594681 v 0.31781 h 0.319684 v 0.63937 h -0.639368 v -0.63937 h -0.637499 v 1.91437 z m 3.507176,-0.31782 v -0.63937 h -0.637498 v 0.63937 z m -0.957182,0.31782 v -0.31782 h -0.317815 v -0.63937 h 0.317815 v -0.31781 h 0.957182 v -0.63937 h -0.637498 v 0.31968 h -0.637499 v -0.31968 h 0.317815 v -0.31781 h 1.276866 v 0.31781 h 0.319684 v 1.91437 z m 2.871547,0 v -0.31782 h -0.319684 v -1.59655 h -0.637498 v -0.31781 h 0.637498 v -0.63937 h 0.637499 v 0.63937 h 0.639368 v 0.31781 h -0.639368 v 1.59655 h 0.639368 v 0.31782 z m 1.274997,0 v -0.31782 h 0.637499 v -1.59655 h -0.637499 v -0.31781 h 1.274997 v 1.91436 h 0.639369 v 0.31782 z m 0.637499,-2.55187 v -0.6375 h 0.637498 v 0.6375 z m 2.869678,2.23405 v -1.59655 h -0.637498 v 1.59655 z m -0.957182,0.31782 v -0.31782 h -0.317815 v -1.59655 h 0.317815 v -0.31781 h 1.276866 v 0.31781 h 0.319684 v 1.59655 h -0.319684 v 0.31782 z m 1.914365,0 v -2.23218 h 1.594681 v 0.31781 h 0.319684 v 1.91437 h -0.639368 v -1.91437 h -0.637499 v 1.91437 z m 3.82686,0 v -2.55187 h -0.637499 v -0.31968 h 1.914365 v 0.31968 h -0.639368 v 2.55187 z m 2.869678,-0.31782 v -1.59655 h -0.637499 v 1.59655 z m -0.957183,0.31782 v -0.31782 h -0.317814 v -1.59655 h 0.317814 v -0.31781 h 1.276867 v 0.31781 h 0.319684 v 1.59655 h -0.319684 v 0.31782 z m 3.189363,-0.31782 v -1.59655 h -0.637499 v 1.59655 z m -0.957183,0.31782 v -0.31782 H -12.7786 v -1.59655 h 0.317814 v -0.31781 h 1.276867 v 0.31781 h 0.319684 v 1.59655 h -0.319684 v 0.31782 z m 1.914367,0 v -0.31782 h 0.6374987 v -2.23405 h -0.6374987 v -0.31968 h 1.2749972 v 2.55373 h 0.639368 v 0.31782 z"
       id="text1"
       style="font-size:3.82873px;line-height:0.9;font-family:Determination;-inkscape-font-specification:Determination;font-feature-settings:'liga', 'kern', 'calt', 'lnum';text-align:center;text-anchor:middle;white-space:pre;inline-size:36.1542;fill:#2e3440;stroke-width:1.495"
       transform="matrix(1.5158002,0,0,1.5158002,70.109592,-36.215244)"
       aria-label="PnET-&#10;Succession Calibration Tool" /><g
       id="g5"
       transform="matrix(1.1439146,0,0,1.1439146,-4.4849559,-22.852485)"><g
         id="g1"
         transform="matrix(0.16456366,0,0,0.16456366,5.5056209,172.45859)"><path
           fill="#5b9821"
           d="m 32,24.66 c 0,0 2.43,-7.3 8.16,-11.88 5.73,-4.58 58.85,15.04 58.85,15.04 0,0 9.28,3.31 14.77,12.08 3.69,5.9 5.75,14.62 1.84,25.15 -9.32,25.08 -33.5,22.18 -39.8,20.75 -2.96,-0.67 -10.17,-2.58 -10.17,-2.58 0,0 -16.47,13.6 -36.29,3.17 C 14.27,78.45 16.14,66.58 16.14,66.58 16.14,66.58 5.98,56.42 10.38,42.27 15.68,25.23 32,24.66 32,24.66"
           id="path1" /><path
           fill="#8bc02b"
           d="m 66.37,55.01 c 13.75,-2.29 18.04,-8.16 21.77,-13.6 4.11,-6 3.01,-11.03 5.87,-11.17 2.86,-0.14 5.14,5.02 2,14.03 -4.44,12.74 -13.57,14.61 -13.75,18.04 -0.14,2.72 9.72,2.91 18.62,-1.43 12.89,-6.3 12.89,-21.05 12.89,-21.05 0,0 -2.29,-4.73 -6.73,-8.02 C 102.6,28.52 99.3,26.8 99.3,26.8 99.3,26.8 94,6.9 69.95,3.6 45.9,0.3 36.01,17.07 36.01,17.07 c 0,0 0.86,5.44 5.01,11.74 3.31,5.03 6.73,4.87 6.44,7.73 -0.19,1.86 -6.16,2.43 -12.46,-0.29 -5.74,-2.48 -7.16,-5.87 -8.73,-5.87 -1.57,0 -14.59,7.25 -9.16,22.62 4.3,12.17 18.51,14.45 21.05,14.89 7.45,1.29 11.74,-3.58 6.44,-7.45 -5.3,-3.87 -11.17,-6.16 -9.88,-10.02 1.39,-4.18 6.35,0.18 12.31,2.76 5.89,2.55 13.02,2.89 19.34,1.83"
           id="path2" /><path
           fill="#6d4b41"
           d="m 39.03,70.97 c 0,0 3.3,-0.19 4.66,-0.58 1.36,-0.39 3.2,-1.55 3.2,-1.55 0,0 12.75,13.34 14.07,14.46 1.29,1.09 2.81,-15.53 2.81,-15.53 0,0 2.91,0.45 5.63,0.02 3.58,-0.57 6.02,-1.71 6.02,-1.71 0,0 -1.74,10.23 -2.42,14.11 -0.43,2.49 -0.58,9.41 -0.58,9.41 L 63.1,97.36 56.01,92.6 c 0,0 -0.02,-1.87 -1.07,-3.14 C 51.68,85.52 39.03,70.97 39.03,70.97 m 32.51,22.81 7.09,-8.54 c 0,0 2.52,0.19 4.37,0.19 1.84,0 5.05,-0.39 5.05,-0.39 0,0 -5.82,7.86 -8.93,11.74 -3.11,3.88 -7.18,8.74 -7.18,8.74 L 68.06,94.26 Z"
           id="path3" /><path
           fill="#865b50"
           d="m 66.5,86.98 c -2.9,0.26 -10.48,5.63 -10.48,5.63 0,0 0.39,9.12 0.1,14.27 -0.29,5.15 -2.32,13.56 -0.45,15.69 1.62,1.84 15.24,2.19 17.27,0.05 2.04,-2.14 0.06,-10.98 0.06,-16.71 0,-5.73 -0.58,-16.31 -0.58,-16.31 0,0 -2.62,-2.91 -5.92,-2.62"
           id="path4" /></g><g
         id="g3"
         transform="matrix(0.28406307,0,0,0.28406307,13.211556,157.65568)"><path
           fill="#82aec0"
           d="m 124,71.85 v -15.7 c 0,-0.59 -0.45,-1.09 -1.03,-1.15 l -17.83,-1.89 c -0.47,-0.05 -0.85,-0.38 -0.98,-0.83 -0.86,-2.95 -2.03,-5.76 -3.48,-8.39 -0.23,-0.41 -0.19,-0.92 0.11,-1.28 l 11.28,-13.94 c 0.37,-0.46 0.34,-1.13 -0.08,-1.54 l -11.1,-11.1 A 1.15,1.15 0 0 0 99.35,15.95 L 85.39,27.22 c -0.37,0.3 -0.87,0.33 -1.28,0.11 A 41.8,41.8 0 0 0 75.72,23.85 C 75.27,23.72 74.94,23.34 74.89,22.87 L 73,5.03 C 72.94,4.45 72.44,4 71.85,4 H 56.15 C 55.56,4 55.06,4.45 55,5.03 l -1.89,17.83 c -0.05,0.47 -0.38,0.85 -0.83,0.98 -2.95,0.86 -5.76,2.03 -8.39,3.48 -0.41,0.23 -0.92,0.19 -1.28,-0.11 L 28.67,15.94 a 1.15,1.15 0 0 0 -1.54,0.08 l -11.1,11.1 a 1.15,1.15 0 0 0 -0.08,1.54 L 27.23,42.6 c 0.3,0.37 0.33,0.87 0.11,1.28 a 41.8,41.8 0 0 0 -3.48,8.39 c -0.13,0.45 -0.51,0.78 -0.98,0.83 L 5.03,55 C 4.45,55.06 4,55.56 4,56.15 v 15.7 c 0,0.59 0.45,1.09 1.03,1.15 l 17.83,1.89 c 0.47,0.05 0.85,0.38 0.98,0.83 0.86,2.95 2.03,5.76 3.48,8.39 0.23,0.41 0.19,0.92 -0.11,1.28 L 15.94,99.33 c -0.37,0.46 -0.34,1.13 0.08,1.54 l 11.1,11.1 c 0.42,0.42 1.08,0.45 1.54,0.08 L 42.6,100.77 c 0.37,-0.3 0.87,-0.33 1.28,-0.11 2.64,1.45 5.45,2.62 8.39,3.48 0.45,0.13 0.78,0.51 0.83,0.98 l 1.9,17.85 c 0.06,0.59 0.56,1.03 1.15,1.03 h 15.7 c 0.59,0 1.09,-0.45 1.15,-1.03 l 1.89,-17.83 c 0.05,-0.47 0.38,-0.85 0.83,-0.98 2.95,-0.86 5.76,-2.03 8.39,-3.48 0.41,-0.23 0.92,-0.19 1.28,0.11 l 13.94,11.28 c 0.46,0.37 1.13,0.34 1.54,-0.08 l 11.1,-11.1 c 0.42,-0.42 0.45,-1.08 0.08,-1.54 L 100.77,85.41 c -0.3,-0.37 -0.33,-0.87 -0.11,-1.28 1.45,-2.64 2.62,-5.45 3.48,-8.39 0.13,-0.45 0.51,-0.78 0.98,-0.83 L 122.97,73 c 0.58,-0.06 1.03,-0.56 1.03,-1.15 m -60,3.43 c -6.23,0 -11.28,-5.05 -11.28,-11.28 0,-6.23 5.05,-11.28 11.28,-11.28 6.23,0 11.28,5.05 11.28,11.28 0,6.23 -5.05,11.28 -11.28,11.28"
           id="path1-9" /><path
           fill="#2f7889"
           d="m 80.56,49.48 c 3.67,4.18 5.78,9.77 5.43,15.85 -0.65,11.16 -9.83,20.19 -21,20.68 -4.75,0.21 -9.18,-1.09 -12.86,-3.45 -0.28,-0.18 -0.58,0.2 -0.34,0.44 a 22.41,22.41 0 0 0 17.85,6.67 C 80.42,88.82 89.2,80.17 90.19,69.4 90.96,61.04 87.13,53.53 80.96,49.07 c -0.29,-0.2 -0.62,0.15 -0.4,0.41"
           id="path2-8" /><path
           fill="#b9e4ea"
           d="M 43.87,65.32 C 43.2,52.17 51.7,42.53 63.88,42.53 c 0.65,0 1.68,0 2.48,0.92 1.01,1.18 1.1,2.6 0,3.77 -0.81,0.86 -1.95,0.92 -2.53,1 -12.3,1.59 -15.18,9.35 -15.83,16.77 -0.03,0.33 0.06,2.35 -1.71,2.56 -2.15,0.25 -2.41,-1.91 -2.42,-2.23"
           id="path3-9" /><path
           fill="#94d1e0"
           d="m 25.24,65.87 c -0.01,-22.03 15.9,-40.19 38.13,-41.05 0.68,-0.03 2.45,0 3.55,0.99 1.01,0.91 1.38,2.51 0.79,3.82 -0.95,2.11 -2.85,2.07 -3.36,2.09 -18.51,0.66 -34.18,15.73 -34.19,33.95 0,0.29 -0.05,0.58 -0.15,0.84 l -0.1,0.25 c -0.76,1.98 -3.52,2.09 -4.43,0.18 -0.15,-0.34 -0.24,-0.7 -0.24,-1.07"
           id="path4-8" /></g><g
         id="g4"
         transform="matrix(0.16456366,0,0,0.16456366,35.983059,172.50323)"><path
           fill="#855b51"
           d="m 56.39,103.2 c 0,0 -0.28,5 -1.06,8.02 -0.77,3.03 -3.38,5.07 -2.53,8.59 0.56,2.32 3.59,4.01 9.64,4.01 6.05,0 10.16,-1.62 10.28,-4.72 0.14,-3.59 -2.04,-4.86 -2.39,-8.8 -0.35,-3.94 -0.21,-7.6 -0.21,-7.6 z"
           id="path1-4" /><path
           fill="#027f1c"
           d="m 21.15,87.5 c 0,0 -4.6,0.94 -6.29,1.5 -1.69,0.56 -3.19,0.94 -3.57,2.53 -0.38,1.59 -0.75,5.63 5.35,8.35 6.1,2.72 15.86,1.78 15.86,1.78 0,0 -1.03,4.04 2.35,5.91 3.38,1.88 9.95,1.41 14.45,-0.09 4.5,-1.5 5.91,-2.44 5.91,-2.44 0,0 2.25,3.94 9.95,3.85 7.7,-0.09 9.85,-2.91 9.85,-2.91 0,0 7.98,4.6 14.73,3.19 6.75,-1.41 4.69,-7.79 4.69,-7.79 0,0 8.45,1.69 15.49,-1.22 7.04,-2.91 7.6,-6.57 7.41,-7.7 -0.19,-1.13 -1.64,-3.24 -3.99,-3.05 -2.35,0.19 -7.74,-1.74 -9.9,-3.05 -2.16,-1.31 -6.95,-3.66 -7.79,-4.04 -0.84,-0.38 -2.49,-1.6 -2.21,-2.63 0.28,-1.03 0.7,-1.31 2.58,-1.13 1.88,0.19 7.13,0.19 9.57,-1.69 2.44,-1.88 3.94,-4.5 3.66,-6.01 -0.28,-1.5 -3,-2.72 -3,-2.72 0,0 -14.08,-6.48 -15.2,-6.95 -1.13,-0.47 -3.84,-1.88 -3.75,-3.1 0.09,-1.31 8.82,-0.38 9.67,-5.73 0.85,-5.35 -1.6,-5.35 -3.57,-6.48 -1.97,-1.13 -7.7,-2.82 -7.7,-2.82 0,0 -4.69,-3 -5.54,-3.57 -0.84,-0.56 -2.25,-1.5 -2.16,-2.25 0.09,-0.75 4.86,0.73 9.01,-0.56 3,-0.94 3.38,-2.96 2.77,-4.74 -0.3,-0.87 -5.68,-3.33 -5.68,-3.33 L 55.31,24.9 c 0,0 -19.05,6.38 -19.71,6.66 -0.66,0.28 -1.03,1.5 0,2.82 1.03,1.31 2.72,3.28 6.38,3.19 3.66,-0.09 6.01,-1.69 6.66,-0.66 0.66,1.03 -0.96,2.64 -2.06,3.28 l -6.1,3.57 c 0,0 -10.61,4.5 -11.17,7.23 -0.56,2.73 0.56,4.07 2.25,5.26 1.41,0.99 4.08,1.36 5.82,1.31 1.22,-0.03 1.99,-0.37 2.3,0.75 0.42,1.55 -2.21,2.91 -4.65,3.75 -2.44,0.84 -7.23,3 -7.23,3 0,0 -7.88,1.88 -8.35,2.72 -0.47,0.84 -1.31,4.97 1.97,7.88 3.28,2.91 9.29,3.66 9.29,3.66 0,0 -0.75,2.35 -2.25,3.66 a 25.4,25.4 0 0 1 -7.31,4.52"
           id="path2-2" /><path
           fill="#02ab47"
           d="m 62.44,4.35 c 2.35,0 2.53,4.04 7.13,9.67 4.98,6.1 10.63,11.39 12.93,13.23 2.51,2.02 6.03,3.45 6.19,3.87 0.16,0.42 -3.64,1.85 -8.99,2.14 -5.35,0.28 -10.42,-1.69 -10.42,-1.69 0,0 3.85,8.54 1.78,10.51 -1.67,1.59 -7.51,1.41 -11.73,-4.79 -4.22,-6.2 -4.32,-8.17 -4.32,-8.17 0,0 -6.66,4.04 -12.58,4.13 -5.92,0.09 -6.85,-1.2 -6.85,-1.69 0,-0.49 6.66,-3.47 9.29,-5.44 C 47.5,24.15 53.32,17.7 57,12.42 59.82,8.39 60.57,4.35 62.44,4.35"
           id="path3-3" /><path
           fill="#02ab47"
           d="m 57,39.08 c 0,0 -2.44,2.53 -6.29,2.82 -3.85,0.29 -5.91,-0.66 -5.91,-0.66 0,0 -4.74,1.92 -9.01,4.41 -3.34,1.95 -6.41,4.46 -6.34,4.88 0.07,0.42 0.99,1.97 7.18,1.97 6.19,0 6.76,-1.58 9.85,-1.5 3.94,0.09 6.19,7.02 12.95,7.13 5.63,0.09 4.79,-4.04 7.88,-4.41 3.1,-0.38 4.51,2.09 8.87,2.21 12.01,0.33 21.49,-5.07 20.13,-8.31 -0.45,-1.08 -3.55,-2.59 -8.07,-4.18 -4.27,-1.5 -5.87,-2.39 -5.87,-2.39 0,0 -0.7,1.5 -2.86,2.16 -2.02,0.61 -5.54,-0.75 -5.54,-0.75 0,0 0,2.91 -3.28,3.47 C 66.28,46.68 62.34,44.71 60.55,43.11 58.76,41.51 57,39.08 57,39.08 m 18.58,39.6 c -3.07,1.21 -6.29,8.92 -12.86,7.23 -6.57,-1.69 -7.41,-12.58 -7.41,-12.58 0,0 -15.17,13.2 -19.71,9.01 -3.71,-3.43 3.1,-8.78 3.1,-8.78 0,0 -7.04,2.21 -13.14,-0.42 -6.1,-2.63 -6.22,-4.72 -6.1,-5.35 0.12,-0.63 4.47,-2.15 8.07,-3.38 2.96,-1.01 6.41,-1.97 6.41,-1.97 0,0 3.54,1.41 2.7,3.19 -0.84,1.78 -4.22,3 -2.91,4.32 1.31,1.31 4.88,-1.13 6.1,-1.97 1.22,-0.84 4.69,-2.62 6.95,-2.72 4.97,-0.23 6.95,3.57 11.64,2.72 4.69,-0.85 8.14,-4.6 13.12,-5.26 4.97,-0.66 8.07,1.69 12.95,1.13 4.88,-0.56 6.59,-2.63 6.59,-2.63 0,0 4.97,1.88 9.2,3.66 4.22,1.78 7.79,4.32 7.79,4.32 0,0 -3,3 -8.35,3.66 -5.35,0.66 -8.17,-2.06 -9.2,-2.63 -1.03,-0.57 -4.22,-3.28 -5.07,-2.25 -0.84,1.03 3.47,3.47 5.35,4.88 1.88,1.41 5.59,4.43 0.09,7.41 -2.77,1.5 -6.29,1.08 -8.17,0.66 -5.17,-1.15 -5.06,-3.06 -7.14,-2.25"
           id="path4-1" /><path
           fill="#02ab47"
           d="m 75.87,83.94 c 0,0 -5.54,6.76 -9.57,8.82 -4.03,2.06 -7.79,2.11 -7.79,2.11 0,0 -2.11,2.16 -1.69,5.26 0.3,2.22 2.91,4.36 8.63,3.99 5.72,-0.37 7.13,-1.69 7.32,-3.38 0.19,-1.69 -0.99,-3.28 -1.36,-4.04 -0.38,-0.75 -1.92,-2.53 -0.89,-3.19 1.03,-0.66 2.06,0.38 3.38,2.35 1.31,1.97 7.41,12.48 15.39,9.1 7.89,-3.34 -1.78,-10.89 0.19,-12.11 1.97,-1.22 6.95,3.1 14.64,2.63 8.36,-0.51 10.23,-4.71 10.23,-5.96 0,-0.47 -3.43,-0.47 -6.29,-1.13 -2.17,-0.5 -5.3,-2.44 -5.3,-2.44 0,0 -6.9,2.86 -13.37,2.02 C 82.92,87.13 75.87,83.94 75.87,83.94 M 50.81,81.4 c 0,0 0.38,6.38 1.6,8.63 1.22,2.25 3.94,4.5 3.94,4.5 0,0 -0.61,2.96 -3.66,5.26 -3.99,3.01 -11.17,5.16 -15.39,4.04 -4.22,-1.13 -3.28,-4.04 -2.91,-5.16 0.38,-1.13 4.5,-5.73 5.54,-7.23 1.03,-1.5 2.35,-3.47 1.13,-3.75 -1.22,-0.28 -3.19,2.72 -4.6,4.41 -1.41,1.69 -5.26,5.35 -12.48,4.32 -7.22,-1.03 -12.78,-5.12 -12.12,-5.96 0.66,-0.84 5.73,-2.58 8.54,-3.43 2.82,-0.84 8.07,-4.04 8.07,-4.04 0,0 -0.47,2.72 1.97,3.66 3.06,1.18 7.32,0.84 12.76,-1.31 4.12,-1.63 7.61,-3.94 7.61,-3.94"
           id="path5" /><path
           fill="#028b2b"
           d="m 24.08,88.84 c -1.73,1.49 -4.22,2.11 -3.17,3.66 1.06,1.55 3.1,-0.21 4.79,-1.55 1.69,-1.34 3.59,-2.67 2.6,-3.87 -0.98,-1.2 -2.67,0.42 -4.22,1.76 m 19.36,6.2 c 1.84,1.45 3.1,-2.6 3.73,-4.15 0.63,-1.55 2.08,-3.81 0.84,-4.58 -1.69,-1.06 -2.39,1.06 -3.38,3.52 -0.99,2.46 -2.53,4.15 -1.19,5.21 m 5.7,-27.6 c -1.01,-0.76 -1.76,-0.07 -3.17,1.97 -1.41,2.04 -2.25,3.52 -1.13,4.29 1.13,0.77 3.03,-1.97 3.73,-3.03 0.7,-1.06 1.42,-2.59 0.57,-3.23 m 14.03,1.79 c -1.81,0.42 -0.86,2.22 -0.49,3.94 0.42,1.97 1.06,5.07 1.34,5.91 0.35,1.06 0.77,2.6 2.11,2.25 1.34,-0.35 0.86,-2.29 0.7,-3.17 C 66.48,76.12 65.7,72.95 65.49,71.97 65.28,70.99 65,68.8 63.17,69.23 M 77.79,88.7 c -1.12,1.06 0.28,2.53 1.9,4.36 1.62,1.83 2.67,3.8 4.01,2.96 1.34,-0.84 -0.14,-2.67 -1.48,-4.15 -1.33,-1.48 -3.09,-4.44 -4.43,-3.17 M 75.84,67.35 c -1.2,1.06 0.35,2.53 1.27,3.94 0.92,1.41 2.82,3.52 3.38,4.08 0.56,0.56 1.43,1.71 2.39,1.13 1.22,-0.74 0.07,-2.25 -0.42,-2.82 -0.49,-0.57 -2.11,-2.82 -3.03,-3.8 -0.92,-0.98 -2.09,-3.86 -3.59,-2.53 M 76.1,45.62 c -0.98,1.38 1.06,2.82 3.03,3.94 1.97,1.13 4.04,2.36 4.79,1.13 0.84,-1.41 -1.2,-2.53 -2.89,-3.52 -1.69,-0.99 -3.87,-3.03 -4.93,-1.55 m -16.47,2.11 c -2.11,-0.14 -1.83,1.69 -1.76,3.66 0.07,1.97 0.42,3.1 1.76,3.1 1.34,0 1.34,-2.04 1.34,-3.1 0,-1.05 0,-3.57 -1.34,-3.66 M 48.6,47.94 c 0.94,1.52 3.1,-0.63 4.01,-1.41 0.92,-0.77 2.25,-1.9 1.34,-3.03 -0.92,-1.13 -2.82,0.49 -3.73,1.34 -0.91,0.85 -2.53,1.63 -1.62,3.1 M 62.06,26.9 c 0.57,3.96 1.36,5.63 2.87,5.13 1.35,-0.44 0.42,-2.89 0.1,-5.16 -0.31,-2.28 -0.36,-4.26 -2.03,-4.01 -1.87,0.28 -1.28,1.66 -0.94,4.04 m 7.99,-1.4 c 1.26,1.93 2.55,3.01 3.87,2.17 1.01,-0.64 -0.39,-2.49 -1.24,-3.61 -0.58,-0.76 -2.24,-3.93 -3.79,-2.57 -1.05,0.92 -0.15,2 1.16,4.01 M 56.6,20.99 c 0.73,0.68 0,2.04 -1.06,3.17 -1.06,1.13 -2.53,3.17 -3.66,2.11 -1.13,-1.06 0.84,-2.82 1.55,-3.66 0.71,-0.85 2.05,-2.68 3.17,-1.62"
           id="path6" /></g></g></g></svg>
